<svg xmlns="http://www.w3.org/2000/svg" xmlns:xlink="http://www.w3.org/1999/xlink" width="300" zoomAndPan="magnify" viewBox="0 0 224.87999 225" height="300" preserveAspectRatio="xMidYMid meet" version="1.0"><defs><g/><clipPath id="53615cc82b"><path d="M 0 0.0585938 L 224.761719 0.0585938 L 224.761719 224.9375 L 0 224.9375 Z M 0 0.0585938 " clip-rule="nonzero"/></clipPath></defs><g clip-path="url(#53615cc82b)"><path fill="#ffffff" d="M 0 0.0585938 L 224.878906 0.0585938 L 224.878906 224.941406 L 0 224.941406 Z M 0 0.0585938 " fill-opacity="1" fill-rule="nonzero"/><path fill="#a6a6a6" d="M 0 0.0585938 L 224.878906 0.0585938 L 224.878906 224.941406 L 0 224.941406 Z M 0 0.0585938 " fill-opacity="1" fill-rule="nonzero"/></g><g fill="#004aad" fill-opacity="1"><g transform="translate(1.833006, 144.924016)"><g><path d="M 42.671875 -64.9375 C 36.484375 -64.9375 31.691406 -62.613281 28.296875 -57.96875 C 24.910156 -53.320312 23.21875 -46.84375 23.21875 -38.53125 C 23.21875 -21.25 29.703125 -12.609375 42.671875 -12.609375 C 48.109375 -12.609375 54.695312 -13.972656 62.4375 -16.703125 L 62.4375 -2.921875 C 56.082031 -0.265625 48.984375 1.0625 41.140625 1.0625 C 29.859375 1.0625 21.234375 -2.351562 15.265625 -9.1875 C 9.296875 -16.03125 6.3125 -25.847656 6.3125 -38.640625 C 6.3125 -46.703125 7.773438 -53.757812 10.703125 -59.8125 C 13.640625 -65.875 17.851562 -70.519531 23.34375 -73.75 C 28.84375 -76.988281 35.285156 -78.609375 42.671875 -78.609375 C 50.203125 -78.609375 57.765625 -76.789062 65.359375 -73.15625 L 60.0625 -59.796875 C 57.164062 -61.171875 54.25 -62.367188 51.3125 -63.390625 C 48.375 -64.421875 45.492188 -64.9375 42.671875 -64.9375 Z M 42.671875 -64.9375 "/></g></g></g><g fill="#004aad" fill-opacity="1"><g transform="translate(71.010216, 144.924016)"><g><path d="M 74.046875 -39.484375 C 74.046875 -26.734375 70.414062 -16.960938 63.15625 -10.171875 C 55.894531 -3.390625 45.410156 0 31.703125 0 L 9.75 0 L 9.75 -77.5 L 34.078125 -77.5 C 46.734375 -77.5 56.554688 -74.160156 63.546875 -67.484375 C 70.546875 -60.804688 74.046875 -51.472656 74.046875 -39.484375 Z M 56.984375 -39.0625 C 56.984375 -55.707031 49.632812 -64.03125 34.9375 -64.03125 L 26.1875 -64.03125 L 26.1875 -13.578125 L 33.234375 -13.578125 C 49.066406 -13.578125 56.984375 -22.070312 56.984375 -39.0625 Z M 56.984375 -39.0625 "/></g></g></g><g fill="#004aad" fill-opacity="1"><g transform="translate(151.372394, 144.924016)"><g><path d="M 26.1875 -43.09375 L 31.484375 -43.09375 C 36.679688 -43.09375 40.515625 -43.957031 42.984375 -45.6875 C 45.460938 -47.425781 46.703125 -50.148438 46.703125 -53.859375 C 46.703125 -57.535156 45.4375 -60.148438 42.90625 -61.703125 C 40.382812 -63.253906 36.472656 -64.03125 31.171875 -64.03125 L 26.1875 -64.03125 Z M 26.1875 -29.734375 L 26.1875 0 L 9.75 0 L 9.75 -77.5 L 32.328125 -77.5 C 42.859375 -77.5 50.648438 -75.582031 55.703125 -71.75 C 60.765625 -67.914062 63.296875 -62.09375 63.296875 -54.28125 C 63.296875 -49.71875 62.039062 -45.660156 59.53125 -42.109375 C 57.019531 -38.554688 53.46875 -35.773438 48.875 -33.765625 C 60.539062 -16.347656 68.140625 -5.09375 71.671875 0 L 53.4375 0 L 34.9375 -29.734375 Z M 26.1875 -29.734375 "/></g></g></g></svg>