<svg xmlns="http://www.w3.org/2000/svg" xmlns:xlink="http://www.w3.org/1999/xlink" width="300" zoomAndPan="magnify" viewBox="0 0 224.87999 225" height="300" preserveAspectRatio="xMidYMid meet" version="1.0"><defs><g/><clipPath id="1d95321a32"><path d="M 0 0.0585938 L 224.761719 0.0585938 L 224.761719 224.9375 L 0 224.9375 Z M 0 0.0585938 " clip-rule="nonzero"/></clipPath></defs><g clip-path="url(#1d95321a32)"><path fill="#ffffff" d="M 0 0.0585938 L 224.878906 0.0585938 L 224.878906 224.941406 L 0 224.941406 Z M 0 0.0585938 " fill-opacity="1" fill-rule="nonzero"/><path fill="#545454" d="M 0 0.0585938 L 224.878906 0.0585938 L 224.878906 224.941406 L 0 224.941406 Z M 0 0.0585938 " fill-opacity="1" fill-rule="nonzero"/></g><g fill="#ff914d" fill-opacity="1"><g transform="translate(71.842375, 140.320336)"><g><path d="M 27.984375 -46.046875 L 33.640625 -46.046875 C 39.191406 -46.046875 43.289062 -46.96875 45.9375 -48.8125 C 48.582031 -50.664062 49.90625 -53.578125 49.90625 -57.546875 C 49.90625 -61.472656 48.550781 -64.265625 45.84375 -65.921875 C 43.144531 -67.585938 38.96875 -68.421875 33.3125 -68.421875 L 27.984375 -68.421875 Z M 27.984375 -31.78125 L 27.984375 0 L 10.421875 0 L 10.421875 -82.8125 L 34.546875 -82.8125 C 45.804688 -82.8125 54.132812 -80.757812 59.53125 -76.65625 C 64.925781 -72.5625 67.625 -66.34375 67.625 -58 C 67.625 -53.125 66.285156 -48.789062 63.609375 -45 C 60.929688 -41.207031 57.132812 -38.234375 52.21875 -36.078125 C 64.6875 -17.460938 72.804688 -5.4375 76.578125 0 L 57.09375 0 L 37.328125 -31.78125 Z M 27.984375 -31.78125 "/></g></g></g></svg>