<svg xmlns="http://www.w3.org/2000/svg" xmlns:xlink="http://www.w3.org/1999/xlink" width="300" zoomAndPan="magnify" viewBox="0 0 224.87999 225" height="300" preserveAspectRatio="xMidYMid meet" version="1.0"><defs><g/><clipPath id="bc88d8419f"><path d="M 0 0.0585938 L 224.761719 0.0585938 L 224.761719 224.9375 L 0 224.9375 Z M 0 0.0585938 " clip-rule="nonzero"/></clipPath></defs><g clip-path="url(#bc88d8419f)"><path fill="#ffffff" d="M 0 0.0585938 L 224.878906 0.0585938 L 224.878906 224.941406 L 0 224.941406 Z M 0 0.0585938 " fill-opacity="1" fill-rule="nonzero"/><path fill="#d9d9d9" d="M 0 0.0585938 L 224.878906 0.0585938 L 224.878906 224.941406 L 0 224.941406 Z M 0 0.0585938 " fill-opacity="1" fill-rule="nonzero"/></g><g fill="#ff914d" fill-opacity="1"><g transform="translate(66.001279, 151.667827)"><g><path d="M 36.171875 -59.53125 L 43.5 -59.53125 C 50.675781 -59.53125 55.972656 -60.722656 59.390625 -63.109375 C 62.804688 -65.503906 64.515625 -69.269531 64.515625 -74.40625 C 64.515625 -79.476562 62.769531 -83.085938 59.28125 -85.234375 C 55.789062 -87.378906 50.382812 -88.453125 43.0625 -88.453125 L 36.171875 -88.453125 Z M 36.171875 -41.078125 L 36.171875 0 L 13.46875 0 L 13.46875 -107.0625 L 44.671875 -107.0625 C 59.210938 -107.0625 69.972656 -104.410156 76.953125 -99.109375 C 83.941406 -93.816406 87.4375 -85.773438 87.4375 -74.984375 C 87.4375 -68.679688 85.703125 -63.078125 82.234375 -58.171875 C 78.765625 -53.265625 73.859375 -49.421875 67.515625 -46.640625 C 83.628906 -22.578125 94.125 -7.03125 99 0 L 73.8125 0 L 48.25 -41.078125 Z M 36.171875 -41.078125 "/></g></g></g></svg>