<svg xmlns="http://www.w3.org/2000/svg" xmlns:xlink="http://www.w3.org/1999/xlink" width="300" zoomAndPan="magnify" viewBox="0 0 224.87999 225" height="300" preserveAspectRatio="xMidYMid meet" version="1.0"><defs><g/><clipPath id="b589a37578"><path d="M 0 0.0585938 L 224.761719 0.0585938 L 224.761719 224.9375 L 0 224.9375 Z M 0 0.0585938 " clip-rule="nonzero"/></clipPath></defs><g clip-path="url(#b589a37578)"><path fill="#ffffff" d="M 0 0.0585938 L 224.878906 0.0585938 L 224.878906 224.941406 L 0 224.941406 Z M 0 0.0585938 " fill-opacity="1" fill-rule="nonzero"/><path fill="#ffffff" d="M 0 0.0585938 L 224.878906 0.0585938 L 224.878906 224.941406 L 0 224.941406 Z M 0 0.0585938 " fill-opacity="1" fill-rule="nonzero"/></g><g fill="#5271ff" fill-opacity="1"><g transform="translate(5.033748, 117.371029)"><g><path d="M 10.625 -17.484375 L 12.78125 -17.484375 C 14.882812 -17.484375 16.4375 -17.832031 17.4375 -18.53125 C 18.445312 -19.238281 18.953125 -20.347656 18.953125 -21.859375 C 18.953125 -23.347656 18.4375 -24.40625 17.40625 -25.03125 C 16.382812 -25.664062 14.800781 -25.984375 12.65625 -25.984375 L 10.625 -25.984375 Z M 10.625 -12.0625 L 10.625 0 L 3.953125 0 L 3.953125 -31.453125 L 13.125 -31.453125 C 17.394531 -31.453125 20.554688 -30.671875 22.609375 -29.109375 C 24.660156 -27.554688 25.6875 -25.195312 25.6875 -22.03125 C 25.6875 -20.175781 25.175781 -18.53125 24.15625 -17.09375 C 23.144531 -15.65625 21.707031 -14.523438 19.84375 -13.703125 C 24.570312 -6.628906 27.65625 -2.0625 29.09375 0 L 21.6875 0 L 14.171875 -12.0625 Z M 10.625 -12.0625 "/></g></g><g transform="translate(34.117211, 117.371029)"><g><path d="M 22.078125 0 L 3.953125 0 L 3.953125 -31.453125 L 22.078125 -31.453125 L 22.078125 -25.984375 L 10.625 -25.984375 L 10.625 -19.078125 L 21.28125 -19.078125 L 21.28125 -13.625 L 10.625 -13.625 L 10.625 -5.515625 L 22.078125 -5.515625 Z M 22.078125 0 "/></g></g><g transform="translate(58.790829, 117.371029)"><g><path d="M 22.53125 -8.734375 C 22.53125 -5.890625 21.503906 -3.648438 19.453125 -2.015625 C 17.410156 -0.378906 14.566406 0.4375 10.921875 0.4375 C 7.566406 0.4375 4.597656 -0.195312 2.015625 -1.46875 L 2.015625 -7.65625 C 4.140625 -6.707031 5.9375 -6.039062 7.40625 -5.65625 C 8.875 -5.269531 10.222656 -5.078125 11.453125 -5.078125 C 12.910156 -5.078125 14.03125 -5.351562 14.8125 -5.90625 C 15.59375 -6.46875 15.984375 -7.300781 15.984375 -8.40625 C 15.984375 -9.03125 15.8125 -9.582031 15.46875 -10.0625 C 15.125 -10.539062 14.617188 -11 13.953125 -11.4375 C 13.285156 -11.882812 11.925781 -12.597656 9.875 -13.578125 C 7.957031 -14.484375 6.515625 -15.347656 5.546875 -16.171875 C 4.585938 -17.003906 3.820312 -17.972656 3.25 -19.078125 C 2.675781 -20.179688 2.390625 -21.472656 2.390625 -22.953125 C 2.390625 -25.734375 3.332031 -27.921875 5.21875 -29.515625 C 7.101562 -31.109375 9.707031 -31.90625 13.03125 -31.90625 C 14.664062 -31.90625 16.222656 -31.710938 17.703125 -31.328125 C 19.191406 -30.941406 20.75 -30.394531 22.375 -29.6875 L 20.21875 -24.5 C 18.539062 -25.1875 17.15625 -25.664062 16.0625 -25.9375 C 14.96875 -26.21875 13.890625 -26.359375 12.828125 -26.359375 C 11.554688 -26.359375 10.582031 -26.0625 9.90625 -25.46875 C 9.238281 -24.882812 8.90625 -24.117188 8.90625 -23.171875 C 8.90625 -22.585938 9.039062 -22.078125 9.3125 -21.640625 C 9.582031 -21.203125 10.015625 -20.773438 10.609375 -20.359375 C 11.210938 -19.953125 12.625 -19.21875 14.84375 -18.15625 C 17.78125 -16.75 19.796875 -15.335938 20.890625 -13.921875 C 21.984375 -12.515625 22.53125 -10.785156 22.53125 -8.734375 Z M 22.53125 -8.734375 "/></g></g><g transform="translate(83.055729, 117.371029)"><g><path d="M 29.5625 -31.453125 L 29.5625 -11.109375 C 29.5625 -8.773438 29.039062 -6.734375 28 -4.984375 C 26.957031 -3.234375 25.453125 -1.890625 23.484375 -0.953125 C 21.523438 -0.0234375 19.207031 0.4375 16.53125 0.4375 C 12.476562 0.4375 9.332031 -0.597656 7.09375 -2.671875 C 4.863281 -4.742188 3.75 -7.582031 3.75 -11.1875 L 3.75 -31.453125 L 10.390625 -31.453125 L 10.390625 -12.203125 C 10.390625 -9.773438 10.875 -7.992188 11.84375 -6.859375 C 12.820312 -5.722656 14.441406 -5.15625 16.703125 -5.15625 C 18.878906 -5.15625 20.457031 -5.722656 21.4375 -6.859375 C 22.414062 -8.003906 22.90625 -9.796875 22.90625 -12.234375 L 22.90625 -31.453125 Z M 29.5625 -31.453125 "/></g></g><g transform="translate(116.355434, 117.371029)"><g><path d="M 17.28125 0 L 9.703125 -24.671875 L 9.515625 -24.671875 C 9.785156 -19.648438 9.921875 -16.300781 9.921875 -14.625 L 9.921875 0 L 3.953125 0 L 3.953125 -31.453125 L 13.03125 -31.453125 L 20.484375 -7.40625 L 20.609375 -7.40625 L 28.5 -31.453125 L 37.59375 -31.453125 L 37.59375 0 L 31.375 0 L 31.375 -14.890625 C 31.375 -15.585938 31.382812 -16.394531 31.40625 -17.3125 C 31.425781 -18.238281 31.519531 -20.679688 31.6875 -24.640625 L 31.5 -24.640625 L 23.390625 0 Z M 17.28125 0 "/></g></g><g transform="translate(157.894018, 117.371029)"><g><path d="M 22.078125 0 L 3.953125 0 L 3.953125 -31.453125 L 22.078125 -31.453125 L 22.078125 -25.984375 L 10.625 -25.984375 L 10.625 -19.078125 L 21.28125 -19.078125 L 21.28125 -13.625 L 10.625 -13.625 L 10.625 -5.515625 L 22.078125 -5.515625 Z M 22.078125 0 "/></g></g><g transform="translate(182.567636, 117.371029)"><g><path d="M 31.859375 0 L 23.390625 0 L 9.703125 -23.796875 L 9.515625 -23.796875 C 9.785156 -19.585938 9.921875 -16.585938 9.921875 -14.796875 L 9.921875 0 L 3.953125 0 L 3.953125 -31.453125 L 12.375 -31.453125 L 26.03125 -7.890625 L 26.1875 -7.890625 C 25.96875 -11.984375 25.859375 -14.875 25.859375 -16.5625 L 25.859375 -31.453125 L 31.859375 -31.453125 Z M 31.859375 0 "/></g></g></g></svg>